# xmcd
#
# Track frame offsets:
# 150
# 18823
# 36953
# 54101
# 70907
# 86424
# 116229
# 131551
# 151555
# 177361
# 200471
# 220718
#
# Disc length: 3138 seconds
#
#
# Revision: 0
# Processed by: cddbd v1.4PL0 Copyright (c) Steve Scherf et al.
# Submitted via: FreeRIP 2.30 
#
DISCID=960c400c
DTITLE=Neville Brothers - Yellow Moon
DYEAR=1989
DGENRE=
TTITLE0=My Blood
TTITLE1=Yellow Moon
TTITLE2=Fire and Brimstone
TTITLE3=A Change Is Gonna Come
TTITLE4=Sister Rosa
TTITLE5=With God On Our Side
TTITLE6=Wake Up
TTITLE7=Voo Doo
TTITLE8=The Ballad Of Hollie Brown
TTITLE9=Will The Circle Be Unbroken
TTITLE10=Heating Chant
TTITLE11=Wild Injuns
EXTD=
EXTT0=
EXTT1=
EXTT2=
EXTT3=
EXTT4=
EXTT5=
EXTT6=
EXTT7=
EXTT8=
EXTT9=
EXTT10=
EXTT11=
PLAYORDER=
